<?xml version="1.0" encoding="UTF-8"?>
<svg id="Ebene_1" xmlns="http://www.w3.org/2000/svg" version="1.1" viewBox="0 0 283.5 283.5">
  <!-- Generator: Adobe Illustrator 29.8.1, SVG Export Plug-In . SVG Version: 2.1.1 Build 2)  -->
  <defs>
    <style>
      .st0, .st1 {
        fill: #1d1d1b;
      }

      .st1 {
        stroke: #fff;
        stroke-miterlimit: 10;
        stroke-width: 4px;
      }
    </style>
  </defs>
  <path class="st0" d="M127.2,190.4L198.1,22.8h42.5v167.6h18.4v35.4h-18.4v45h-38.3v-45h-75.1v-35.4ZM202.3,190.4v-93.2l-39.3,93.2h39.3Z"/>
  <path class="st1" d="M28.3,168.9c0-22.9,34.5-63.6,58.6-63.6s19.4,9.7,19.4,24.8-6.6,26.4-13.6,42.7c-10.9,26.8-15.9,39.2-15.9,48.1s1.9,5.8,5.4,5.8c5.4,0,22.9-12.4,48.9-49.3,7.4,0,15.1,6.2,15.1,14,0,24.4-61.7,90-97.4,90s-30.7-10.1-30.7-31.4,4.3-33,14-57c-3.1-7.4-3.9-16.3-3.9-24.1ZM101.3,2.9c15.5,0,33,17.1,33,29.1s-7.4,24.4-26,47.3c-15.1,0-26-11.3-26-33.8S88.9,2.9,101.3,2.9Z"/>
</svg>